<?xml version="1.0" encoding="UTF-8" standalone="no"?> <svg id="Layer_1" data-name="Layer 1" xmlns="http://www.w3.org/2000/svg" viewBox="0 0 64 64"><defs><style>.cls-1{fill:#123791;}.cls-2{fill:#fbc104;}</style></defs><title>Quran_2</title><path class="cls-1" d="M19,61H13a1,1,0,0,1-1-1V50a3,3,0,0,1,3-3h7.4a1,1,0,0,1,.59.19l8.23,6a1,1,0,0,1,.36,1.12,1,1,0,0,1-.95.69H20v5A1,1,0,0,1,19,61Zm-5-2h4V54a1,1,0,0,1,1-1h8.57l-5.5-4H15a1,1,0,0,0-1,1Z"/><path class="cls-1" d="M51,61H45a1,1,0,0,1-1-1V55H33.37a1,1,0,0,1-.95-.69,1,1,0,0,1,.36-1.12l8.23-6A1,1,0,0,1,41.6,47H49a3,3,0,0,1,3,3V60A1,1,0,0,1,51,61Zm-5-2h4V50a1,1,0,0,0-1-1H41.92l-5.49,4H45a1,1,0,0,1,1,1Z"/><path class="cls-1" d="M33.37,55H30.63a1,1,0,0,1-.59-.19L3.48,35.46a1,1,0,0,1-.22-1.4l3.53-4.85a1,1,0,0,1,.65-.4,1,1,0,0,1,.75.18L32,46.33,55.81,29a1,1,0,0,1,.75-.18,1,1,0,0,1,.65.4l3.53,4.85a1,1,0,0,1-.22,1.4L34,54.81A1,1,0,0,1,33.37,55ZM31,53H33L58.53,34.43,56.18,31.2,32.59,48.38a1,1,0,0,1-1.18,0L7.82,31.2,5.47,34.43Z"/><path class="cls-1" d="M32,48.57a1,1,0,0,1-.59-.19L10.63,33.25a1,1,0,0,1-.4-.65,1,1,0,0,1,.18-.75l3.38-4.64a1,1,0,0,1,1.4-.22l17.4,12.67a1,1,0,0,1,.41.81v7.1a1,1,0,0,1-.55.89A1,1,0,0,1,32,48.57ZM12.62,32.22,31,45.6V41L14.82,29.2Z"/><path class="cls-1" d="M32,48.57a1,1,0,0,1-.45-.11,1,1,0,0,1-.55-.89v-7.1a1,1,0,0,1,.41-.81L48.81,27a1,1,0,0,1,1.4.22l3.38,4.64a1,1,0,0,1,.18.75,1,1,0,0,1-.4.65L32.59,48.38A1,1,0,0,1,32,48.57ZM33,41V45.6L51.38,32.22l-2.2-3Z"/><path class="cls-1" d="M32,48.57a1,1,0,0,1-1-1v-7.1a1,1,0,0,1,2,0v7.1A1,1,0,0,1,32,48.57Z"/><path class="cls-2" d="M31.1,31.56a13.85,13.85,0,0,1-3.24-.38h0a13.71,13.71,0,0,1-1-26.39A1,1,0,0,1,28,5.21a1,1,0,0,1-.12,1.22A10.8,10.8,0,0,0,41.84,22.77,1,1,0,0,1,43.3,24,13.63,13.63,0,0,1,31.1,31.56Zm-2.77-2.33a11.67,11.67,0,0,0,11-3.11A12.8,12.8,0,0,1,23.31,10.84a12.7,12.7,0,0,1,.88-2.49,11.72,11.72,0,0,0,4.14,20.88Z"/><path class="cls-2" d="M42.64,20.29a1,1,0,0,1-.59-.19L37.75,17,33.46,20.1a1,1,0,0,1-1.18,0A1,1,0,0,1,31.92,19l1.64-5.05-4.29-3.12A1,1,0,0,1,29.85,9h5.31L36.8,4a1,1,0,0,1,1.91,0L40.35,9h5.3a1,1,0,0,1,.59,1.81L42,13.93,43.59,19a1,1,0,0,1-.37,1.12A1,1,0,0,1,42.64,20.29Zm-4.89-5.55a1,1,0,0,1,.59.19l2.39,1.74-.91-2.81a1,1,0,0,1,.36-1.12L42.58,11h-3a1,1,0,0,1-.95-.69L37.75,7.5l-.91,2.81a1,1,0,0,1-1,.69h-3l2.4,1.74a1,1,0,0,1,.36,1.12l-.92,2.81,2.4-1.74A1,1,0,0,1,37.75,14.74Z"/></svg>